<svg width="200" height="18" viewBox="0 0 200 18" fill="none" xmlns="http://www.w3.org/2000/svg">
<path d="M181.27 13.8734C180.819 11.8972 180.277 10.4518 180.198 8.97244C180.073 6.75909 179.588 4.11659 180.582 2.434C181.338 1.14665 184.218 0.37874 186.025 0.582006C189.48 0.977245 193.026 1.81296 196.165 3.2584C197.893 4.06018 199.339 6.31866 199.982 8.23839C200.219 8.94982 198.029 11.0615 196.583 11.6375C193.817 12.7328 190.835 13.3878 187.877 13.8169C185.483 14.1557 182.998 13.8847 181.293 13.8847L181.27 13.8734Z" fill="#1BB6F9"/>
<path d="M8.41556 3.90247C12.2776 4.1622 16.1961 4.15092 19.9904 4.82847C21.6392 5.12208 23.0168 6.86114 24.53 7.94523C23.4347 9.13095 22.5426 10.9265 21.1875 11.4007C17.5625 12.6655 13.7795 13.6028 9.99653 14.2239C6.74427 14.7546 3.5033 13.8851 1.3803 11.2426C0.363973 9.97787 -0.302294 7.68551 0.138115 6.26265C0.499477 5.11081 2.67894 4.26389 4.21473 3.82348C5.50208 3.45083 7.00399 3.86862 8.41556 3.92508V3.90247Z" fill="#1BB6F9"/>
<path d="M162.683 13.8853C158.392 13.5804 154.53 12.3044 152.768 8.26163C152.023 6.56775 152.373 3.88007 153.242 2.14102C154.315 -0.0271544 156.754 0.176164 158.855 1.13603C161.396 2.31046 164.106 3.29286 166.364 4.8964C167.866 5.9692 169.921 8.34069 169.571 9.46994C169.052 11.1638 166.714 12.3834 165.009 13.603C164.433 14.0095 163.417 13.8063 162.683 13.8853Z" fill="#1BB6F9"/>
<path d="M72.5803 17.4198C69.8475 15.613 67.2728 14.416 65.4434 12.5075C64.5513 11.5815 64.5513 9.13106 65.082 7.73078C65.4886 6.68057 67.3857 5.61906 68.6279 5.59647C72.2302 5.54001 75.8664 5.81105 79.4462 6.31921C83.2744 6.86125 84.5956 10.4185 81.6595 12.8576C79.2203 14.879 75.889 15.8163 72.5803 17.4198Z" fill="#1BB6F9"/>
<path d="M103.375 16.6179C100.868 15.0821 98.1467 13.7948 95.9785 11.875C95.0525 11.062 94.6008 8.57761 95.1654 7.51611C95.843 6.25135 97.8418 5.00919 99.2759 4.9979C102.291 4.97531 105.43 5.4157 108.276 6.38686C109.688 6.87244 111.449 8.939 111.461 10.2941C111.461 11.8638 110.038 13.8512 108.66 14.9127C107.508 15.8048 105.521 15.6242 103.917 15.9178C103.736 16.1436 103.567 16.3808 103.386 16.6066L103.375 16.6179Z" fill="#1BB6F9"/>
<path d="M43.6714 15.1612C41.6049 13.998 38.8834 12.9365 36.8507 11.1071C35.936 10.2827 35.8118 7.62902 36.4441 6.34167C36.9297 5.35922 39.1657 4.78328 40.5998 4.83974C43.2762 4.94137 45.9976 5.38177 48.5498 6.17225C50.0065 6.62395 52.0731 7.9226 52.2311 9.06314C52.4118 10.3731 51.1019 12.3719 49.8484 13.264C48.4369 14.269 46.3816 14.382 43.6601 15.1498L43.6714 15.1612Z" fill="#1BB6F9"/>
<path d="M132.16 13.2978C129.517 11.8185 126.593 10.678 124.357 8.72437C123.352 7.84355 123.047 5.03172 123.69 3.72178C124.199 2.68286 126.672 2.10691 128.219 2.20855C130.251 2.34406 132.273 3.23618 134.226 3.98149C136.711 4.93006 139.252 6.21743 138.608 9.43581C137.964 12.5864 135.118 12.3831 132.645 12.4396C132.476 12.7332 132.318 13.0155 132.149 13.3091L132.16 13.2978Z" fill="#1BB6F9"/>
</svg>
