<svg width="82" height="104" viewBox="0 0 82 104" fill="none" xmlns="http://www.w3.org/2000/svg">
<g clip-path="url(#clip0_1077_1486)">
<path d="M64.6397 26.6026L61.2553 25.1954C61.1972 25.1682 61.1304 25.1636 61.0706 25.1918C59.8991 25.6845 58.9586 26.1089 58.1368 26.4921C57.9858 26.5623 57.8415 26.631 57.6971 26.6997C57.0991 26.9818 56.558 27.2473 56.0242 27.5085C55.7405 27.6503 55.4575 27.7892 55.1709 27.9303C54.6387 26.7668 54.0856 25.5638 53.5175 24.3352C50.7224 18.3034 47.5599 11.6748 44.8551 6.15041C44.8306 6.1007 44.7908 6.06261 44.7408 6.04052L41.3578 4.63998C41.3056 4.61423 41.2445 4.61107 41.1877 4.62761C41.1877 4.62761 41.1811 4.62905 41.1775 4.63122C41.1775 4.63122 41.1775 4.63122 41.1738 4.63339C40.8589 4.76414 40.5411 4.89415 40.2254 5.02782C39.1925 5.46276 38.1696 5.91889 37.1546 6.39256C30.5292 9.48917 24.3094 13.3972 18.6446 18.0398C18.5584 18.111 18.5366 18.2327 18.5928 18.3278C24.2478 28.2097 31.4318 42.3195 36.3988 52.5816C36.4045 52.5955 36.411 52.6065 36.4204 52.6182C36.4478 52.6562 36.4862 52.6878 36.529 52.7018L39.9134 54.1089C39.9809 54.1354 40.0566 54.1299 40.1157 54.0922C43.0421 52.3118 46.4352 50.5574 49.571 48.7808C52.5275 55.9498 55.4748 63.4579 58.4328 70.7298C58.9477 71.9975 59.4641 73.2594 59.9798 74.5119C60.3829 75.4903 60.7853 76.4592 61.1892 77.4223C61.1892 77.4223 61.1884 77.4252 61.1906 77.4289C61.192 77.4355 61.1942 77.4391 61.1992 77.4435C61.1992 77.4435 61.1992 77.4435 61.1985 77.4464C61.2007 77.4501 61.2028 77.4538 61.205 77.4574C61.205 77.4574 61.2101 77.4618 61.2093 77.4647C61.2093 77.4647 61.2136 77.472 61.2165 77.4728C61.2165 77.4728 61.2209 77.4801 61.2238 77.4808C61.2238 77.4808 61.2238 77.4808 61.2267 77.4816C61.2296 77.4823 61.231 77.4889 61.2368 77.4904C61.2585 77.5145 61.2882 77.5314 61.3194 77.5425L64.7038 78.9496C64.7706 78.9791 64.8499 78.9714 64.9126 78.9315C64.9754 78.8916 65.0143 78.8239 65.0177 78.7503C65.7224 61.5031 66.0896 44.0022 64.7754 26.7862C64.7693 26.7008 64.7137 26.6277 64.6354 26.5952L64.6397 26.6026Z" fill="#FCB849"/>
<path d="M34.3567 71.6266L32.0808 71.8281C32.0401 71.8301 32.0043 71.849 31.978 71.8795C31.4727 72.4895 31.0713 72.9955 30.7276 73.445C30.6632 73.5279 30.6023 73.6086 30.5452 73.6871C30.2946 74.0144 30.0718 74.3177 29.8526 74.6188C29.7346 74.7781 29.6195 74.9381 29.5015 75.0973C28.8746 74.6082 28.2208 74.1029 27.5561 73.5918C24.2799 71.0697 20.6275 68.3244 17.5462 66.057C17.5172 66.0372 17.486 66.0261 17.4503 66.0325L15.1773 66.2348C15.1402 66.2347 15.1052 66.2506 15.0796 66.2782C15.0796 66.2782 15.0789 66.2811 15.0781 66.284C14.9405 66.4476 14.8028 66.6112 14.6681 66.7755C14.2214 67.3135 13.7877 67.861 13.3613 68.4166C10.5873 72.0366 8.26873 75.9934 6.47022 80.1915C6.4415 80.2556 6.46579 80.3301 6.52449 80.3668C12.4883 84.1895 20.5096 89.9034 26.1999 94.1313C26.2078 94.1365 26.2129 94.1409 26.2209 94.146C26.2455 94.1585 26.2746 94.1659 26.3066 94.1617L28.5825 93.9601C28.6269 93.9559 28.667 93.932 28.6898 93.8913C29.7969 92.0626 31.1695 90.1154 32.3933 88.2296C36.0843 91.3325 39.8688 94.627 43.5915 97.7877C44.24 98.3381 44.8884 98.8886 45.5333 99.4289C46.0348 99.8518 46.5378 100.269 47.035 100.685C47.035 100.685 47.035 100.685 47.0379 100.685C47.0379 100.685 47.0438 100.687 47.0459 100.69C47.0459 100.69 47.0517 100.692 47.0546 100.693C47.0546 100.693 47.0575 100.693 47.0604 100.694C47.0604 100.694 47.0633 100.695 47.0662 100.696L47.0721 100.697C47.0721 100.697 47.0779 100.699 47.0808 100.699C47.1011 100.705 47.1214 100.71 47.1411 100.705L49.417 100.504C49.4643 100.5 49.5052 100.474 49.528 100.433C49.5507 100.392 49.551 100.343 49.5338 100.301C44.9739 90.5773 40.1553 80.8125 34.4866 71.6877C34.4577 71.643 34.4084 71.618 34.3546 71.6229L34.3567 71.6266Z" fill="#FCB849"/>
</g>
<defs>
<clipPath id="clip0_1077_1486">
<rect width="60" height="91.6667" fill="white" transform="translate(23.2024) rotate(14.3174)"/>
</clipPath>
</defs>
</svg>
