<svg width="200" height="40" viewBox="0 0 200 40" fill="none" xmlns="http://www.w3.org/2000/svg">
<path d="M99.0253 16.896C121.259 13.0388 143.481 9.10231 165.743 5.35427C175.168 3.76448 184.647 2.5153 194.12 1.28362C195.496 1.10151 197.902 1.59826 198.2 2.29795C198.63 3.28511 198.012 5.01085 197.028 5.95036C194.404 8.45577 190.685 9.61007 186.734 10.2655C172.272 12.6785 157.829 15.2102 143.352 17.5361C106.494 23.4748 69.623 29.3343 32.7532 35.2018C25.6138 36.3405 18.4644 37.3509 11.3186 38.45C7.77267 38.9993 4.6055 38.4795 2.34628 36.6178C1.44886 35.8851 1.14112 34.3173 1.49877 33.2515C1.739 32.5298 3.54299 31.6446 4.7553 31.4484C36.1282 26.3077 67.5127 21.2383 98.9062 16.1593C98.9446 16.397 98.9845 16.6425 99.0229 16.8801L99.0253 16.896Z" fill="#FC787D"/>
</svg>
